Coordinates
version=1
nRows=8
nColumns=46
inDegrees=yes

Units are S.I. units (second, meters, Newtons, ...)
Angles are in degrees.

endheader
time	pelvis_tilt	pelvis_list	pelvis_rotation	pelvis_tx	pelvis_ty	pelvis_tz	bb_angle	bb_tx	bb_ty	bb_tz	hip_flexion_r	hip_adduction_r	hip_rotation_r	knee_angle_r	knee_angle_r_beta	ankle_angle_r	subtalar_angle_r	mtp_angle_r	crank_angle_r	hip_flexion_l	hip_adduction_l	hip_rotation_l	knee_angle_l	knee_angle_l_beta	ankle_angle_l	subtalar_angle_l	mtp_angle_l	crank_angle_l	lumbar_extension	lumbar_bending	lumbar_rotation	arm_flex_r	arm_add_r	arm_rot_r	elbow_flex_r	pro_sup_r	wrist_flex_r	wrist_dev_r	arm_flex_l	arm_add_l	arm_rot_l	elbow_flex_l	pro_sup_l	wrist_flex_l	wrist_dev_l
      2.50500000	    -23.27117384	     -4.52307436	      3.51420859	      0.34483305	      1.15489551	     -0.25539049	      0.00000000	      0.50000000	      0.00000000	      0.25000000	     65.39390566	     -7.76867954	     -5.54737481	     99.73514330	      1.74070663	    -11.05674126	     -6.51621137	      0.00000000	      0.00000000	     55.16356192	     -1.86172252	      8.63127329	     54.21037077	      0.94614946	      9.74526868	    -11.17826483	      0.00000000	      0.00000000	    -58.92873779	      7.45736889	     -0.19657822	     61.53179704	    -10.76415117	     20.01899565	     75.90920151	     54.07606040	      0.00000000	      0.00000000	     46.27922141	    -19.72935390	     10.25989225	     95.21363564	     52.62005604	      0.00000000	      0.00000000
      2.51000000	    -23.10041731	     -4.92674945	      3.39169313	      0.34487080	      1.15410575	     -0.25576186	      0.00000000	      0.50000000	      0.00000000	      0.25000000	     66.45089432	     -7.48944425	     -5.49573681	    101.16343981	      1.76563511	    -11.07129087	     -6.42532264	      0.00000000	      0.00000000	     53.85921006	     -2.32541730	      8.80370060	     52.68083910	      0.91945410	      9.18106544	    -11.33298051	      0.00000000	      0.00000000	    -59.01292019	      7.89966849	      0.52005558	     61.67320337	    -11.54550556	     20.82492567	     76.31602595	     54.34485744	      0.00000000	      0.00000000	     46.28732441	    -19.32050307	     10.22904634	     94.88867207	     52.61006298	      0.00000000	      0.00000000
      2.51500000	    -23.03049555	     -5.40265129	      3.26114836	      0.34487684	      1.15326133	     -0.25584879	      0.00000000	      0.50000000	      0.00000000	      0.25000000	     67.60309713	     -7.12538583	     -5.52895001	    102.52728220	      1.78943865	    -11.01310451	     -6.43699902	      0.00000000	      0.00000000	     52.69404576	     -2.89948162	      8.96725015	     51.24202820	      0.89434211	      8.85871445	    -11.10896289	      0.00000000	      0.00000000	    -59.02207993	      8.41041371	      1.16831493	     61.69079953	    -11.47964323	     20.92183347	     76.35142857	     54.34522703	      0.00000000	      0.00000000	     46.15424498	    -19.34573534	     10.17002276	     94.84879419	     52.58650311	      0.00000000	      0.00000000
      2.52000000	    -22.65557220	     -5.57551226	      3.09570912	      0.34527141	      1.15390269	     -0.25619688	      0.00000000	      0.50000000	      0.00000000	      0.25000000	     68.36926235	     -6.93761833	     -5.33480391	    103.74328473	      1.81066190	    -10.88335835	     -6.31634051	      0.00000000	      0.00000000	     50.90610631	     -3.28373063	      8.90207268	     49.38380418	      0.86190998	      8.06746111	    -11.48335134	      0.00000000	      0.00000000	    -59.47755991	      8.63113835	      1.56762967	     62.06063111	    -11.93132807	     21.52139357	     76.65136008	     54.49426764	      0.00000000	      0.00000000	     46.19972544	    -18.96399227	      9.91546254	     94.61444949	     52.53649050	      0.00000000	      0.00000000
      2.52500000	    -22.66461078	     -6.03299639	      3.00271848	      0.34515283	      1.15338982	     -0.25679535	      0.00000000	      0.50000000	      0.00000000	      0.25000000	     69.56501674	     -6.71802390	     -5.44685234	    104.93084417	      1.83138872	    -10.74458002	     -6.35378721	      0.00000000	      0.00000000	     49.79291085	     -3.81423904	      9.01580161	     47.95678483	      0.83700379	      7.75799700	    -11.21812204	      0.00000000	      0.00000000	    -59.46292548	      9.21428384	      2.18404751	     62.16346667	    -11.90717357	     21.64918656	     76.71356880	     54.50529374	      0.00000000	      0.00000000	     46.05678168	    -18.97493405	      9.86236517	     94.54606153	     52.51266230	      0.00000000	      0.00000000
      2.53000000	    -22.65814188	     -6.42382008	      2.84448371	      0.34517725	      1.15345333	     -0.25711721	      0.00000000	      0.50000000	      0.00000000	      0.25000000	     70.69974315	     -6.44519189	     -5.51513480	    105.98630332	      1.84980995	    -10.54151566	     -6.44171428	      0.00000000	      0.00000000	     48.55360235	     -4.39588849	      9.01486661	     46.37351943	      0.80937060	      7.31957521	    -10.91987268	      0.00000000	      0.00000000	    -59.53780487	      9.66208537	      2.72729577	     62.38694029	    -11.89872405	     21.82709703	     76.82968341	     54.53673861	      0.00000000	      0.00000000	     45.90701146	    -18.93261141	      9.79558758	     94.43361219	     52.48539076	      0.00000000	      0.00000000
      2.53500000	    -22.22932579	     -6.44134379	      2.63112326	      0.34567133	      1.15531845	     -0.25743784	      0.00000000	      0.50000000	      0.00000000	      0.25000000	     71.29417092	     -6.28806926	     -5.26913537	    106.87671634	      1.86535059	    -10.14941370	     -6.45462224	      0.00000000	      0.00000000	     46.52583408	     -4.74289312	      8.71883808	     44.30594879	      0.77328468	      6.29369263	    -11.31084167	      0.00000000	      0.00000000	    -60.18920827	      9.74990096	      3.08930134	     63.20902241	    -13.07323571	     23.44618261	     77.30971609	     54.87948351	      0.00000000	      0.00000000	     46.14630961	    -18.24474348	      9.38325134	     93.78671868	     52.39110391	      0.00000000	      0.00000000
      2.54000000	    -22.08589412	     -6.61374309	      2.37558044	      0.34597652	      1.15646055	     -0.25735970	      0.00000000	      0.50000000	      0.00000000	      0.25000000	     72.21097950	     -5.98285129	     -5.18087219	    107.70574835	      1.87981993	     -9.87114265	     -6.70650158	      0.00000000	      0.00000000	     45.01166209	     -5.31715400	      8.30385625	     42.62418821	      0.74393243	      5.75799900	    -10.79349019	      0.00000000	      0.00000000	    -60.51735867	      9.92514884	      3.51420508	     63.51988527	    -13.10267209	     23.71405042	     77.49819225	     54.96530939	      0.00000000	      0.00000000	     46.12926662	    -18.18756663	      9.24934369	     93.56121027	     52.36236288	      0.00000000	      0.00000000
